<mxfile host="app.diagrams.net" modified="2024-06-11T10:00:34.040Z" agent="Mozilla/5.0 (X11; Linux x86_64) AppleWebKit/537.36 (KHTML, like Gecko) Chrome/125.0.0.0 Safari/537.36" etag="XpezVcrLT_rD3tSUd6_s" version="24.5.2" type="device" pages="5">
  <diagram name="interactions with server" id="yElJ_G6i6lc_XACNIxVl">
    <mxGraphModel dx="890" dy="413" grid="1" gridSize="10" guides="1" tooltips="1" connect="1" arrows="1" fold="1" page="1" pageScale="1" pageWidth="827" pageHeight="1169" math="0" shadow="0">
      <root>
        <mxCell id="0" />
        <mxCell id="1" parent="0" />
        <mxCell id="zZDptINzVvu3enBbsDAb-1" value="Server" style="rounded=1;whiteSpace=wrap;html=1;" parent="1" vertex="1">
          <mxGeometry x="310" y="145" width="240" height="270" as="geometry" />
        </mxCell>
        <mxCell id="zZDptINzVvu3enBbsDAb-3" value="Publisher" style="ellipse;whiteSpace=wrap;html=1;aspect=fixed;" parent="1" vertex="1">
          <mxGeometry x="40" y="240" width="80" height="80" as="geometry" />
        </mxCell>
        <mxCell id="EPUhPWCkeOjCx8LoVplF-1" value="" style="endArrow=classic;html=1;rounded=0;exitX=1;exitY=0;exitDx=0;exitDy=0;entryX=0.004;entryY=0.144;entryDx=0;entryDy=0;entryPerimeter=0;" edge="1" parent="1" source="zZDptINzVvu3enBbsDAb-3" target="zZDptINzVvu3enBbsDAb-1">
          <mxGeometry width="50" height="50" relative="1" as="geometry">
            <mxPoint x="110" y="300" as="sourcePoint" />
            <mxPoint x="160" y="250" as="targetPoint" />
          </mxGeometry>
        </mxCell>
        <mxCell id="EPUhPWCkeOjCx8LoVplF-2" value="JSON&lt;div&gt;{topic, message}&lt;/div&gt;&lt;div&gt;create the topic if not there.&lt;/div&gt;&lt;div&gt;message is a string&lt;/div&gt;&lt;div&gt;(files later)&lt;/div&gt;" style="edgeLabel;html=1;align=center;verticalAlign=middle;resizable=0;points=[];" vertex="1" connectable="0" parent="EPUhPWCkeOjCx8LoVplF-1">
          <mxGeometry x="-0.2295" y="2" relative="1" as="geometry">
            <mxPoint as="offset" />
          </mxGeometry>
        </mxCell>
        <mxCell id="EPUhPWCkeOjCx8LoVplF-3" value="" style="endArrow=classic;html=1;rounded=0;entryX=1;entryY=1;entryDx=0;entryDy=0;exitX=-0.007;exitY=0.802;exitDx=0;exitDy=0;exitPerimeter=0;" edge="1" parent="1" source="zZDptINzVvu3enBbsDAb-1" target="zZDptINzVvu3enBbsDAb-3">
          <mxGeometry width="50" height="50" relative="1" as="geometry">
            <mxPoint x="150" y="490" as="sourcePoint" />
            <mxPoint x="200" y="440" as="targetPoint" />
          </mxGeometry>
        </mxCell>
        <mxCell id="EPUhPWCkeOjCx8LoVplF-4" value="ACK" style="edgeLabel;html=1;align=center;verticalAlign=middle;resizable=0;points=[];" vertex="1" connectable="0" parent="EPUhPWCkeOjCx8LoVplF-3">
          <mxGeometry x="-0.0116" y="-1" relative="1" as="geometry">
            <mxPoint as="offset" />
          </mxGeometry>
        </mxCell>
        <mxCell id="EPUhPWCkeOjCx8LoVplF-6" value="subscriber" style="rounded=0;whiteSpace=wrap;html=1;" vertex="1" parent="1">
          <mxGeometry x="770" y="145" width="120" height="265" as="geometry" />
        </mxCell>
        <mxCell id="EPUhPWCkeOjCx8LoVplF-7" value="" style="endArrow=classic;html=1;rounded=0;entryX=0.996;entryY=0.118;entryDx=0;entryDy=0;entryPerimeter=0;exitX=0.006;exitY=0.116;exitDx=0;exitDy=0;exitPerimeter=0;" edge="1" parent="1" source="EPUhPWCkeOjCx8LoVplF-6" target="zZDptINzVvu3enBbsDAb-1">
          <mxGeometry width="50" height="50" relative="1" as="geometry">
            <mxPoint x="590" y="290" as="sourcePoint" />
            <mxPoint x="640" y="240" as="targetPoint" />
          </mxGeometry>
        </mxCell>
        <mxCell id="EPUhPWCkeOjCx8LoVplF-8" value="create pull subscription" style="edgeLabel;html=1;align=center;verticalAlign=middle;resizable=0;points=[];" vertex="1" connectable="0" parent="EPUhPWCkeOjCx8LoVplF-7">
          <mxGeometry x="0.044" y="-1" relative="1" as="geometry">
            <mxPoint as="offset" />
          </mxGeometry>
        </mxCell>
        <mxCell id="EPUhPWCkeOjCx8LoVplF-9" value="" style="endArrow=classic;html=1;rounded=0;exitX=1.002;exitY=0.234;exitDx=0;exitDy=0;exitPerimeter=0;entryX=-0.026;entryY=0.232;entryDx=0;entryDy=0;entryPerimeter=0;" edge="1" parent="1" source="zZDptINzVvu3enBbsDAb-1" target="EPUhPWCkeOjCx8LoVplF-6">
          <mxGeometry width="50" height="50" relative="1" as="geometry">
            <mxPoint x="580" y="260" as="sourcePoint" />
            <mxPoint x="630" y="210" as="targetPoint" />
          </mxGeometry>
        </mxCell>
        <mxCell id="EPUhPWCkeOjCx8LoVplF-10" value="return a uniq token&lt;div&gt;to id the sub&lt;/div&gt;" style="edgeLabel;html=1;align=center;verticalAlign=middle;resizable=0;points=[];" vertex="1" connectable="0" parent="EPUhPWCkeOjCx8LoVplF-9">
          <mxGeometry x="-0.1679" y="-1" relative="1" as="geometry">
            <mxPoint as="offset" />
          </mxGeometry>
        </mxCell>
        <mxCell id="EPUhPWCkeOjCx8LoVplF-11" value="" style="endArrow=classic;html=1;rounded=0;entryX=1.005;entryY=0.385;entryDx=0;entryDy=0;entryPerimeter=0;exitX=-0.035;exitY=0.393;exitDx=0;exitDy=0;exitPerimeter=0;" edge="1" parent="1" source="EPUhPWCkeOjCx8LoVplF-6" target="zZDptINzVvu3enBbsDAb-1">
          <mxGeometry width="50" height="50" relative="1" as="geometry">
            <mxPoint x="590" y="290" as="sourcePoint" />
            <mxPoint x="640" y="240" as="targetPoint" />
          </mxGeometry>
        </mxCell>
        <mxCell id="EPUhPWCkeOjCx8LoVplF-12" value="cancel pull sub&lt;div&gt;uniq id supplied&lt;/div&gt;" style="edgeLabel;html=1;align=center;verticalAlign=middle;resizable=0;points=[];" vertex="1" connectable="0" parent="EPUhPWCkeOjCx8LoVplF-11">
          <mxGeometry x="0.1612" y="2" relative="1" as="geometry">
            <mxPoint as="offset" />
          </mxGeometry>
        </mxCell>
        <mxCell id="EPUhPWCkeOjCx8LoVplF-13" value="" style="endArrow=classic;html=1;rounded=0;exitX=1;exitY=0.5;exitDx=0;exitDy=0;entryX=0;entryY=0.5;entryDx=0;entryDy=0;" edge="1" parent="1" source="zZDptINzVvu3enBbsDAb-1" target="EPUhPWCkeOjCx8LoVplF-6">
          <mxGeometry width="50" height="50" relative="1" as="geometry">
            <mxPoint x="590" y="290" as="sourcePoint" />
            <mxPoint x="640" y="240" as="targetPoint" />
          </mxGeometry>
        </mxCell>
        <mxCell id="EPUhPWCkeOjCx8LoVplF-14" value="cancel ACK" style="edgeLabel;html=1;align=center;verticalAlign=middle;resizable=0;points=[];" vertex="1" connectable="0" parent="EPUhPWCkeOjCx8LoVplF-13">
          <mxGeometry x="-0.1833" y="1" relative="1" as="geometry">
            <mxPoint as="offset" />
          </mxGeometry>
        </mxCell>
        <mxCell id="EPUhPWCkeOjCx8LoVplF-15" value="" style="endArrow=classic;html=1;rounded=0;exitX=-0.022;exitY=0.784;exitDx=0;exitDy=0;exitPerimeter=0;entryX=1.012;entryY=0.77;entryDx=0;entryDy=0;entryPerimeter=0;" edge="1" parent="1" source="EPUhPWCkeOjCx8LoVplF-6" target="zZDptINzVvu3enBbsDAb-1">
          <mxGeometry width="50" height="50" relative="1" as="geometry">
            <mxPoint x="590" y="290" as="sourcePoint" />
            <mxPoint x="640" y="240" as="targetPoint" />
          </mxGeometry>
        </mxCell>
        <mxCell id="EPUhPWCkeOjCx8LoVplF-16" value="pull request with subID" style="edgeLabel;html=1;align=center;verticalAlign=middle;resizable=0;points=[];" vertex="1" connectable="0" parent="EPUhPWCkeOjCx8LoVplF-15">
          <mxGeometry x="0.1699" y="-2" relative="1" as="geometry">
            <mxPoint as="offset" />
          </mxGeometry>
        </mxCell>
        <mxCell id="EPUhPWCkeOjCx8LoVplF-17" value="" style="endArrow=classic;html=1;rounded=0;exitX=1.005;exitY=0.862;exitDx=0;exitDy=0;exitPerimeter=0;entryX=0.015;entryY=0.88;entryDx=0;entryDy=0;entryPerimeter=0;" edge="1" parent="1" source="zZDptINzVvu3enBbsDAb-1" target="EPUhPWCkeOjCx8LoVplF-6">
          <mxGeometry width="50" height="50" relative="1" as="geometry">
            <mxPoint x="590" y="290" as="sourcePoint" />
            <mxPoint x="640" y="240" as="targetPoint" />
          </mxGeometry>
        </mxCell>
        <mxCell id="EPUhPWCkeOjCx8LoVplF-19" value="new/unreceived messages after&lt;div&gt;the sub was created&lt;/div&gt;" style="edgeLabel;html=1;align=center;verticalAlign=middle;resizable=0;points=[];" vertex="1" connectable="0" parent="EPUhPWCkeOjCx8LoVplF-17">
          <mxGeometry x="-0.0777" y="-2" relative="1" as="geometry">
            <mxPoint as="offset" />
          </mxGeometry>
        </mxCell>
      </root>
    </mxGraphModel>
  </diagram>
  <diagram id="fYVsl27ztwUdMxT1VWd9" name="new message">
    <mxGraphModel dx="890" dy="413" grid="1" gridSize="10" guides="1" tooltips="1" connect="1" arrows="1" fold="1" page="1" pageScale="1" pageWidth="827" pageHeight="1169" math="0" shadow="0">
      <root>
        <mxCell id="0" />
        <mxCell id="1" parent="0" />
        <mxCell id="mAjHT0YQlS23GM5r045d-3" value="" style="edgeStyle=orthogonalEdgeStyle;rounded=0;orthogonalLoop=1;jettySize=auto;html=1;" edge="1" parent="1" source="mAjHT0YQlS23GM5r045d-1" target="mAjHT0YQlS23GM5r045d-2">
          <mxGeometry relative="1" as="geometry" />
        </mxCell>
        <mxCell id="mAjHT0YQlS23GM5r045d-1" value="Start" style="ellipse;whiteSpace=wrap;html=1;" vertex="1" parent="1">
          <mxGeometry x="250" y="155" width="70" height="50" as="geometry" />
        </mxCell>
        <mxCell id="mAjHT0YQlS23GM5r045d-5" value="" style="edgeStyle=orthogonalEdgeStyle;rounded=0;orthogonalLoop=1;jettySize=auto;html=1;" edge="1" parent="1" source="mAjHT0YQlS23GM5r045d-2" target="mAjHT0YQlS23GM5r045d-4">
          <mxGeometry relative="1" as="geometry" />
        </mxCell>
        <mxCell id="mAjHT0YQlS23GM5r045d-2" value="new mssg received" style="rounded=1;whiteSpace=wrap;html=1;" vertex="1" parent="1">
          <mxGeometry x="350" y="150" width="120" height="60" as="geometry" />
        </mxCell>
        <mxCell id="mAjHT0YQlS23GM5r045d-7" value="" style="edgeStyle=orthogonalEdgeStyle;rounded=0;orthogonalLoop=1;jettySize=auto;html=1;" edge="1" parent="1" source="mAjHT0YQlS23GM5r045d-4" target="mAjHT0YQlS23GM5r045d-6">
          <mxGeometry relative="1" as="geometry" />
        </mxCell>
        <mxCell id="mAjHT0YQlS23GM5r045d-4" value="- create topic if not there&lt;div&gt;- directory for that topic&lt;/div&gt;&lt;div&gt;- update in list of topics&lt;/div&gt;" style="rounded=1;whiteSpace=wrap;html=1;" vertex="1" parent="1">
          <mxGeometry x="540" y="150" width="150" height="60" as="geometry" />
        </mxCell>
        <mxCell id="mAjHT0YQlS23GM5r045d-9" value="" style="edgeStyle=orthogonalEdgeStyle;rounded=0;orthogonalLoop=1;jettySize=auto;html=1;" edge="1" parent="1" source="mAjHT0YQlS23GM5r045d-6" target="mAjHT0YQlS23GM5r045d-8">
          <mxGeometry relative="1" as="geometry" />
        </mxCell>
        <mxCell id="mAjHT0YQlS23GM5r045d-6" value="- get curr list of subscription IDs subscribed to that topic&lt;div&gt;- associate these subIDs to this message (inko deliver karna hai yeh mssg&lt;/div&gt;&lt;div&gt;- persist the mssg on hdd&lt;/div&gt;" style="rounded=1;whiteSpace=wrap;html=1;" vertex="1" parent="1">
          <mxGeometry x="740" y="147.5" width="400" height="65" as="geometry" />
        </mxCell>
        <mxCell id="mAjHT0YQlS23GM5r045d-8" value="send back ACK to producer" style="ellipse;whiteSpace=wrap;html=1;" vertex="1" parent="1">
          <mxGeometry x="1180" y="140" width="120" height="80" as="geometry" />
        </mxCell>
      </root>
    </mxGraphModel>
  </diagram>
  <diagram id="CqQ82wCVbZkZDhMeW7iX" name="new subscription request">
    <mxGraphModel dx="737" dy="342" grid="1" gridSize="10" guides="1" tooltips="1" connect="1" arrows="1" fold="1" page="1" pageScale="1" pageWidth="827" pageHeight="1169" math="0" shadow="0">
      <root>
        <mxCell id="0" />
        <mxCell id="1" parent="0" />
        <mxCell id="Dc0OmkHzBf-mpgUnQWhL-3" value="" style="edgeStyle=orthogonalEdgeStyle;rounded=0;orthogonalLoop=1;jettySize=auto;html=1;" edge="1" parent="1" source="Dc0OmkHzBf-mpgUnQWhL-1" target="Dc0OmkHzBf-mpgUnQWhL-2">
          <mxGeometry relative="1" as="geometry" />
        </mxCell>
        <mxCell id="Dc0OmkHzBf-mpgUnQWhL-1" value="new subn request" style="ellipse;whiteSpace=wrap;html=1;" vertex="1" parent="1">
          <mxGeometry x="100" y="160" width="120" height="80" as="geometry" />
        </mxCell>
        <mxCell id="Dc0OmkHzBf-mpgUnQWhL-5" value="" style="edgeStyle=orthogonalEdgeStyle;rounded=0;orthogonalLoop=1;jettySize=auto;html=1;" edge="1" parent="1" source="Dc0OmkHzBf-mpgUnQWhL-2" target="Dc0OmkHzBf-mpgUnQWhL-4">
          <mxGeometry relative="1" as="geometry" />
        </mxCell>
        <mxCell id="Dc0OmkHzBf-mpgUnQWhL-2" value="generate uniq Id for this subscription" style="rounded=1;whiteSpace=wrap;html=1;" vertex="1" parent="1">
          <mxGeometry x="300" y="170" width="120" height="60" as="geometry" />
        </mxCell>
        <mxCell id="Dc0OmkHzBf-mpgUnQWhL-7" value="" style="edgeStyle=orthogonalEdgeStyle;rounded=0;orthogonalLoop=1;jettySize=auto;html=1;" edge="1" parent="1" source="Dc0OmkHzBf-mpgUnQWhL-4" target="Dc0OmkHzBf-mpgUnQWhL-6">
          <mxGeometry relative="1" as="geometry" />
        </mxCell>
        <mxCell id="Dc0OmkHzBf-mpgUnQWhL-4" value="add this id to list of open subns for this topic" style="whiteSpace=wrap;html=1;rounded=1;" vertex="1" parent="1">
          <mxGeometry x="500" y="170" width="120" height="60" as="geometry" />
        </mxCell>
        <mxCell id="Dc0OmkHzBf-mpgUnQWhL-6" value="send back ack with uniq subn id" style="whiteSpace=wrap;html=1;rounded=1;" vertex="1" parent="1">
          <mxGeometry x="700" y="170" width="120" height="60" as="geometry" />
        </mxCell>
      </root>
    </mxGraphModel>
  </diagram>
  <diagram id="7EnFdLX_-1kNigaahEck" name="new pull request">
    <mxGraphModel dx="737" dy="342" grid="1" gridSize="10" guides="1" tooltips="1" connect="1" arrows="1" fold="1" page="1" pageScale="1" pageWidth="827" pageHeight="1169" math="0" shadow="0">
      <root>
        <mxCell id="0" />
        <mxCell id="1" parent="0" />
        <mxCell id="j6mrsIJtKl3RyrBnPJSn-5" value="" style="edgeStyle=orthogonalEdgeStyle;rounded=0;orthogonalLoop=1;jettySize=auto;html=1;" edge="1" parent="1" source="j6mrsIJtKl3RyrBnPJSn-1" target="j6mrsIJtKl3RyrBnPJSn-4">
          <mxGeometry relative="1" as="geometry" />
        </mxCell>
        <mxCell id="j6mrsIJtKl3RyrBnPJSn-1" value="new pull request" style="ellipse;whiteSpace=wrap;html=1;" vertex="1" parent="1">
          <mxGeometry x="120" y="190" width="120" height="80" as="geometry" />
        </mxCell>
        <mxCell id="j6mrsIJtKl3RyrBnPJSn-7" value="" style="edgeStyle=orthogonalEdgeStyle;rounded=0;orthogonalLoop=1;jettySize=auto;html=1;" edge="1" parent="1" source="j6mrsIJtKl3RyrBnPJSn-4" target="j6mrsIJtKl3RyrBnPJSn-6">
          <mxGeometry relative="1" as="geometry" />
        </mxCell>
        <mxCell id="j6mrsIJtKl3RyrBnPJSn-4" value="subID should be valid" style="rounded=1;whiteSpace=wrap;html=1;" vertex="1" parent="1">
          <mxGeometry x="320" y="200" width="120" height="60" as="geometry" />
        </mxCell>
        <mxCell id="j6mrsIJtKl3RyrBnPJSn-9" value="" style="edgeStyle=orthogonalEdgeStyle;rounded=0;orthogonalLoop=1;jettySize=auto;html=1;" edge="1" parent="1" source="j6mrsIJtKl3RyrBnPJSn-6" target="j6mrsIJtKl3RyrBnPJSn-8">
          <mxGeometry relative="1" as="geometry" />
        </mxCell>
        <mxCell id="j6mrsIJtKl3RyrBnPJSn-6" value="fetch all messages which have this subId associated with them but not yet delivered" style="rounded=1;whiteSpace=wrap;html=1;" vertex="1" parent="1">
          <mxGeometry x="320" y="310" width="120" height="60" as="geometry" />
        </mxCell>
        <mxCell id="j6mrsIJtKl3RyrBnPJSn-11" value="" style="edgeStyle=orthogonalEdgeStyle;rounded=0;orthogonalLoop=1;jettySize=auto;html=1;" edge="1" parent="1" source="j6mrsIJtKl3RyrBnPJSn-8" target="j6mrsIJtKl3RyrBnPJSn-10">
          <mxGeometry relative="1" as="geometry" />
        </mxCell>
        <mxCell id="j6mrsIJtKl3RyrBnPJSn-8" value="send to subscriber" style="rounded=1;whiteSpace=wrap;html=1;" vertex="1" parent="1">
          <mxGeometry x="110" y="310" width="120" height="60" as="geometry" />
        </mxCell>
        <mxCell id="j6mrsIJtKl3RyrBnPJSn-13" value="" style="edgeStyle=orthogonalEdgeStyle;rounded=0;orthogonalLoop=1;jettySize=auto;html=1;" edge="1" parent="1" source="j6mrsIJtKl3RyrBnPJSn-10" target="j6mrsIJtKl3RyrBnPJSn-12">
          <mxGeometry relative="1" as="geometry" />
        </mxCell>
        <mxCell id="j6mrsIJtKl3RyrBnPJSn-10" value="if successful ACK from subscriber, mark these messages as delivered to this subscription" style="rounded=1;whiteSpace=wrap;html=1;" vertex="1" parent="1">
          <mxGeometry x="105" y="450" width="130" height="80" as="geometry" />
        </mxCell>
        <mxCell id="j6mrsIJtKl3RyrBnPJSn-12" value="if all subscriptoins of a message have been delivered, delete that message." style="rounded=1;whiteSpace=wrap;html=1;" vertex="1" parent="1">
          <mxGeometry x="320" y="460" width="120" height="60" as="geometry" />
        </mxCell>
      </root>
    </mxGraphModel>
  </diagram>
  <diagram id="KJHXEj1Iq7xBSi0z-g2U" name="data structures">
    <mxGraphModel dx="858" dy="342" grid="1" gridSize="10" guides="1" tooltips="1" connect="1" arrows="1" fold="1" page="1" pageScale="1" pageWidth="827" pageHeight="1169" math="0" shadow="0">
      <root>
        <mxCell id="0" />
        <mxCell id="1" parent="0" />
        <mxCell id="-2zDn5gDx5XL_snHI2vU-2" value="&lt;h1 style=&quot;margin-top: 0px;&quot;&gt;Topics list&lt;/h1&gt;&lt;p&gt;- list of topics to be synced with filesystem&lt;/p&gt;&lt;p&gt;- unoredred_map from topic name to number of messages in that topic.&lt;/p&gt;" style="text;html=1;whiteSpace=wrap;overflow=hidden;rounded=0;strokeColor=default;" vertex="1" parent="1">
          <mxGeometry x="90" y="130" width="250" height="120" as="geometry" />
        </mxCell>
        <mxCell id="-2zDn5gDx5XL_snHI2vU-3" value="&lt;h1 style=&quot;margin-top: 0px;&quot;&gt;messages/subscriptions&lt;/h1&gt;&lt;p&gt;- nested hashmap. first index is the topic&lt;/p&gt;&lt;p&gt;- each topic points to another hashmap&lt;/p&gt;&lt;p&gt;- this hashmap contains subID as key&lt;/p&gt;&lt;p&gt;- the value is unoredered_set containing messageIDs to be delivered to this subID&lt;/p&gt;" style="text;html=1;whiteSpace=wrap;overflow=hidden;rounded=0;strokeColor=default;" vertex="1" parent="1">
          <mxGeometry x="390" y="130" width="360" height="180" as="geometry" />
        </mxCell>
        <mxCell id="-2zDn5gDx5XL_snHI2vU-4" value="&lt;h1 style=&quot;margin-top: 0px;&quot;&gt;&lt;span style=&quot;background-color: initial;&quot;&gt;sub count for each mssg&lt;/span&gt;&lt;/h1&gt;&lt;h1 style=&quot;margin-top: 0px;&quot;&gt;&lt;span style=&quot;font-size: 12px; font-weight: 400;&quot;&gt;- also maintain a topic-wise unordered_map of messageIDs. value is the number of subIDs left to deliver to. Needed for removal of messages from hdd&lt;/span&gt;&lt;br&gt;&lt;/h1&gt;" style="text;html=1;whiteSpace=wrap;overflow=hidden;rounded=0;strokeColor=default;" vertex="1" parent="1">
          <mxGeometry x="827" y="130" width="353" height="170" as="geometry" />
        </mxCell>
        <mxCell id="-2zDn5gDx5XL_snHI2vU-7" value="" style="edgeStyle=orthogonalEdgeStyle;rounded=0;orthogonalLoop=1;jettySize=auto;html=1;" edge="1" parent="1" source="-2zDn5gDx5XL_snHI2vU-5" target="-2zDn5gDx5XL_snHI2vU-6">
          <mxGeometry relative="1" as="geometry" />
        </mxCell>
        <mxCell id="-2zDn5gDx5XL_snHI2vU-5" value="new message" style="ellipse;whiteSpace=wrap;html=1;" vertex="1" parent="1">
          <mxGeometry x="130" y="390" width="120" height="80" as="geometry" />
        </mxCell>
        <mxCell id="-2zDn5gDx5XL_snHI2vU-9" value="" style="edgeStyle=orthogonalEdgeStyle;rounded=0;orthogonalLoop=1;jettySize=auto;html=1;" edge="1" parent="1" source="-2zDn5gDx5XL_snHI2vU-6" target="-2zDn5gDx5XL_snHI2vU-8">
          <mxGeometry relative="1" as="geometry" />
        </mxCell>
        <mxCell id="-2zDn5gDx5XL_snHI2vU-6" value="- if topic there, incresase its mssg count&lt;div&gt;- if new topic, create it with one mssg count&lt;/div&gt;" style="rounded=1;whiteSpace=wrap;html=1;" vertex="1" parent="1">
          <mxGeometry x="65" y="500" width="250" height="60" as="geometry" />
        </mxCell>
        <mxCell id="-2zDn5gDx5XL_snHI2vU-11" value="" style="edgeStyle=orthogonalEdgeStyle;rounded=0;orthogonalLoop=1;jettySize=auto;html=1;" edge="1" parent="1" source="-2zDn5gDx5XL_snHI2vU-8" target="-2zDn5gDx5XL_snHI2vU-10">
          <mxGeometry relative="1" as="geometry" />
        </mxCell>
        <mxCell id="-2zDn5gDx5XL_snHI2vU-8" value="- if no sub for this topic, delete this mssg&lt;div&gt;- else, add this mssgID to all the current subIDs of this topic&lt;/div&gt;&lt;div&gt;- set the count of subID to deliver this mssg to as the current length of subscritpios for this topic&lt;/div&gt;" style="rounded=1;whiteSpace=wrap;html=1;" vertex="1" parent="1">
          <mxGeometry x="55" y="590" width="270" height="90" as="geometry" />
        </mxCell>
        <mxCell id="-2zDn5gDx5XL_snHI2vU-10" value="save mssg to hdd" style="rounded=1;whiteSpace=wrap;html=1;" vertex="1" parent="1">
          <mxGeometry x="130" y="700" width="120" height="60" as="geometry" />
        </mxCell>
        <mxCell id="-2zDn5gDx5XL_snHI2vU-14" value="" style="edgeStyle=orthogonalEdgeStyle;rounded=0;orthogonalLoop=1;jettySize=auto;html=1;" edge="1" parent="1" source="-2zDn5gDx5XL_snHI2vU-12" target="-2zDn5gDx5XL_snHI2vU-13">
          <mxGeometry relative="1" as="geometry" />
        </mxCell>
        <mxCell id="-2zDn5gDx5XL_snHI2vU-12" value="new sub" style="ellipse;whiteSpace=wrap;html=1;" vertex="1" parent="1">
          <mxGeometry x="475" y="390" width="120" height="80" as="geometry" />
        </mxCell>
        <mxCell id="-2zDn5gDx5XL_snHI2vU-13" value="- create new subID&lt;div&gt;- add it to hashmap of subID for this topic, along with an empty set for mssgIDs for this sub&amp;nbsp;&lt;/div&gt;" style="rounded=1;whiteSpace=wrap;html=1;" vertex="1" parent="1">
          <mxGeometry x="430" y="550" width="210" height="130" as="geometry" />
        </mxCell>
        <mxCell id="-2zDn5gDx5XL_snHI2vU-18" value="" style="edgeStyle=orthogonalEdgeStyle;rounded=0;orthogonalLoop=1;jettySize=auto;html=1;" edge="1" parent="1" source="-2zDn5gDx5XL_snHI2vU-16" target="-2zDn5gDx5XL_snHI2vU-17">
          <mxGeometry relative="1" as="geometry" />
        </mxCell>
        <mxCell id="-2zDn5gDx5XL_snHI2vU-16" value="new pull request" style="ellipse;whiteSpace=wrap;html=1;" vertex="1" parent="1">
          <mxGeometry x="780" y="390" width="120" height="80" as="geometry" />
        </mxCell>
        <mxCell id="-2zDn5gDx5XL_snHI2vU-20" value="" style="edgeStyle=orthogonalEdgeStyle;rounded=0;orthogonalLoop=1;jettySize=auto;html=1;" edge="1" parent="1" source="-2zDn5gDx5XL_snHI2vU-17" target="-2zDn5gDx5XL_snHI2vU-19">
          <mxGeometry relative="1" as="geometry" />
        </mxCell>
        <mxCell id="-2zDn5gDx5XL_snHI2vU-17" value="fetch and send all mssgs from given subID" style="rounded=1;whiteSpace=wrap;html=1;" vertex="1" parent="1">
          <mxGeometry x="770" y="530" width="140" height="60" as="geometry" />
        </mxCell>
        <mxCell id="-2zDn5gDx5XL_snHI2vU-22" value="" style="edgeStyle=orthogonalEdgeStyle;rounded=0;orthogonalLoop=1;jettySize=auto;html=1;" edge="1" parent="1" source="-2zDn5gDx5XL_snHI2vU-19" target="-2zDn5gDx5XL_snHI2vU-21">
          <mxGeometry relative="1" as="geometry" />
        </mxCell>
        <mxCell id="-2zDn5gDx5XL_snHI2vU-19" value="if ACK:&lt;div&gt;- decrement subcount for each mssg in this subID&lt;/div&gt;&lt;div&gt;- clear this set of mssgID from this subID&lt;/div&gt;" style="rounded=1;whiteSpace=wrap;html=1;" vertex="1" parent="1">
          <mxGeometry x="732.5" y="670" width="215" height="90" as="geometry" />
        </mxCell>
        <mxCell id="-2zDn5gDx5XL_snHI2vU-24" value="" style="edgeStyle=orthogonalEdgeStyle;rounded=0;orthogonalLoop=1;jettySize=auto;html=1;" edge="1" parent="1" source="-2zDn5gDx5XL_snHI2vU-21" target="-2zDn5gDx5XL_snHI2vU-23">
          <mxGeometry relative="1" as="geometry" />
        </mxCell>
        <mxCell id="-2zDn5gDx5XL_snHI2vU-21" value="if subcount for some mssgID becomes 0:&lt;div&gt;- mark that message for deletion from hdd&lt;/div&gt;&lt;div&gt;- decrement mssg counter for corresponding topic&lt;/div&gt;" style="rounded=1;whiteSpace=wrap;html=1;" vertex="1" parent="1">
          <mxGeometry x="1000" y="670" width="227.5" height="90" as="geometry" />
        </mxCell>
        <mxCell id="-2zDn5gDx5XL_snHI2vU-23" value="if mssg count for a topic becomes zero:&lt;div&gt;- either delete it now, or mark for lazy deletion. (careful: 2 lazy deletions there)&lt;/div&gt;" style="rounded=1;whiteSpace=wrap;html=1;" vertex="1" parent="1">
          <mxGeometry x="1000" y="500" width="227.5" height="90" as="geometry" />
        </mxCell>
      </root>
    </mxGraphModel>
  </diagram>
</mxfile>
